<svg width="50" height="50" viewBox="0 0 50 50" fill="none" xmlns="http://www.w3.org/2000/svg">
<circle cx="25" cy="25" r="25" fill="black"/>
<path d="M32.22 28.56H33.97V29.26H33.655V29.96H33.34V30.485H32.605V30.66H32.885V30.835H31.905V31.185H33.585V31.71H32.57V31.885H32.605C32.605 32.0017 32.5933 32.1183 32.57 32.235C32.57 32.3517 32.57 32.4683 32.57 32.585H32.535C32.5117 32.655 32.5 32.76 32.5 32.9V33.285H32.325C32.3017 33.3317 32.29 33.39 32.29 33.46C32.29 33.53 32.29 33.5883 32.29 33.635H32.64L32.535 34.335H32.22C32.1967 34.4517 32.1733 34.5683 32.15 34.685C32.15 34.8017 32.1267 34.9183 32.08 35.035H32.465C32.465 35.0583 32.4533 35.0817 32.43 35.105C32.43 35.1283 32.43 35.1633 32.43 35.21H32.955C32.955 35.2333 32.9433 35.2567 32.92 35.28C32.92 35.3033 32.92 35.3383 32.92 35.385H32.29C32.2667 35.4783 32.2433 35.5717 32.22 35.665C32.1967 35.735 32.1733 35.8167 32.15 35.91H32.045L31.835 36.435H31.45C31.4267 36.5283 31.3917 36.6217 31.345 36.715C31.2983 36.785 31.2517 36.8667 31.205 36.96H31.52C31.4733 37.0767 31.415 37.1933 31.345 37.31H31.135C31.1117 37.4033 31.065 37.4967 30.995 37.59C30.9483 37.66 30.9017 37.7417 30.855 37.835H31.94L31.695 38.185H30.4L30.015 38.71H30.4L29.91 39.235H30.295C30.2717 39.2583 30.2367 39.2817 30.19 39.305C30.1667 39.3283 30.1433 39.3633 30.12 39.41H30.54C30.47 39.4567 30.4 39.515 30.33 39.585C30.2833 39.655 30.225 39.7133 30.155 39.76H29.49C29.42 39.8067 29.35 39.865 29.28 39.935C29.21 40.005 29.1283 40.0633 29.035 40.11H29.28C29.21 40.1567 29.1283 40.215 29.035 40.285C28.965 40.355 28.8833 40.4133 28.79 40.46H28.72C28.51 40.5767 28.3 40.6933 28.09 40.81C27.88 40.9267 27.6583 41.0433 27.425 41.16H27.32C27.25 41.1833 27.18 41.2067 27.11 41.23C27.04 41.2533 26.97 41.2883 26.9 41.335C26.7367 41.405 26.5733 41.475 26.41 41.545C26.27 41.5917 26.1067 41.6383 25.92 41.685H25.885C25.115 41.9183 24.275 42.0933 23.365 42.21H23.4C23.0267 42.2567 22.63 42.2917 22.21 42.315C21.8133 42.3383 21.4167 42.35 21.02 42.35C20.6 42.35 20.1917 42.3383 19.795 42.315C19.3983 42.2917 19.0017 42.2567 18.605 42.21C17.7183 42.1167 16.8667 41.9417 16.05 41.685H16.085C15.9217 41.6383 15.7583 41.5917 15.595 41.545C15.4317 41.475 15.2683 41.405 15.105 41.335H15.07C15 41.2883 14.93 41.2533 14.86 41.23C14.79 41.2067 14.72 41.1833 14.65 41.16H14.755C14.5217 41.0433 14.3 40.9267 14.09 40.81C13.88 40.6933 13.67 40.5767 13.46 40.46H13.53L13.005 40.11H12.795C12.7017 40.0633 12.62 40.005 12.55 39.935C12.48 39.865 12.41 39.8067 12.34 39.76H13.005L12.585 39.41H12.165C12.1417 39.3633 12.1183 39.3283 12.095 39.305C12.0717 39.2817 12.0367 39.2583 11.99 39.235H11.64C11.5467 39.1417 11.4533 39.06 11.36 38.99C11.29 38.8967 11.22 38.8033 11.15 38.71H10.765L10.345 38.185H11.64L11.43 37.835H10.31C10.2633 37.7417 10.2167 37.66 10.17 37.59C10.1233 37.4967 10.0767 37.4033 10.03 37.31H10.24C10.17 37.1933 10.1117 37.0767 10.065 36.96H9.75C9.70333 36.8667 9.65667 36.785 9.61 36.715C9.58667 36.6217 9.55167 36.5283 9.505 36.435H9.925L9.715 35.91H9.82C9.79667 35.8167 9.77333 35.735 9.75 35.665C9.72667 35.5717 9.70333 35.4783 9.68 35.385H10.065C10.0417 35.3383 10.03 35.28 10.03 35.21H9.68C9.68 35.1633 9.66833 35.1283 9.645 35.105C9.645 35.0817 9.645 35.0583 9.645 35.035H9.575C9.55167 34.9183 9.52833 34.8017 9.505 34.685C9.48167 34.5683 9.45833 34.4517 9.435 34.335H9.61C9.58667 34.2183 9.56333 34.1017 9.54 33.985C9.54 33.8683 9.54 33.7517 9.54 33.635H9.33L9.295 33.285H9.54V32.9C9.54 32.8533 9.52833 32.8067 9.505 32.76C9.505 32.69 9.505 32.6317 9.505 32.585H9.05C9.02667 32.4683 9.015 32.3517 9.015 32.235C9.015 32.1183 9.015 32.0017 9.015 31.885H9.26V31.71H9.155V31.185H9.855V30.835H8.63V30.66H9.295V30.485H9.26V29.96H9.085V29.26H9.295V28.56H9.05V28.035H7.755V27.335H9.26C9.28333 27.2883 9.295 27.23 9.295 27.16H9.855V26.985H9.435V26.635H9.47L9.54 25.935H9.47C9.47 25.8417 9.47 25.76 9.47 25.69C9.49333 25.5967 9.51667 25.5033 9.54 25.41H9.435C9.435 25.3167 9.435 25.235 9.435 25.165C9.45833 25.0717 9.48167 24.9783 9.505 24.885H9.435C9.45833 24.7917 9.48167 24.71 9.505 24.64C9.52833 24.5467 9.55167 24.4533 9.575 24.36H8.595C8.595 24.3133 8.595 24.2783 8.595 24.255C8.61833 24.2317 8.63 24.2083 8.63 24.185H9.68L9.785 23.835H9.715L9.785 23.66H10.31C10.3333 23.6133 10.3567 23.555 10.38 23.485C10.4033 23.415 10.4267 23.3567 10.45 23.31H10.1C10.17 23.1 10.2633 22.8667 10.38 22.61H10.275C10.345 22.4933 10.4033 22.3767 10.45 22.26C10.52 22.12 10.59 22.0033 10.66 21.91H10.765L10.87 21.735H10.31L10.415 21.56H10.975L11.08 21.385H11.01L11.43 20.86H11.185L11.64 20.335C11.7567 20.2183 11.8733 20.1017 11.99 19.985C12.13 19.845 12.27 19.7283 12.41 19.635H12.06L12.27 19.46H11.885C11.9317 19.4133 11.9667 19.3783 11.99 19.355C12.0367 19.3317 12.0833 19.3083 12.13 19.285H13.005C13.0983 19.2383 13.1917 19.18 13.285 19.11C13.3783 19.04 13.4717 18.9817 13.565 18.935H13.67C13.9033 18.8183 14.1367 18.7017 14.37 18.585C14.6033 18.445 14.8367 18.3283 15.07 18.235H15.175C15.6417 18.025 16.155 17.85 16.715 17.71H16.89C17.5667 17.5233 18.2783 17.3833 19.025 17.29C19.7717 17.1967 20.5417 17.15 21.335 17.15C22.9917 17.15 24.4617 17.3367 25.745 17.71H25.535C25.7917 17.78 26.0483 17.8617 26.305 17.955C26.5617 18.025 26.8067 18.1183 27.04 18.235H26.9C27.1567 18.3283 27.39 18.445 27.6 18.585C27.8333 18.7017 28.0667 18.8183 28.3 18.935H28.16L28.685 19.285H27.81C27.8567 19.3083 27.8917 19.3317 27.915 19.355C27.9617 19.3783 28.0083 19.4133 28.055 19.46H28.44C28.4867 19.4833 28.5333 19.5067 28.58 19.53C28.6267 19.5533 28.6617 19.5883 28.685 19.635H29.035C29.175 19.7283 29.3033 19.845 29.42 19.985C29.56 20.1017 29.6883 20.2183 29.805 20.335H29.84C29.9333 20.4283 30.015 20.5217 30.085 20.615C30.155 20.685 30.225 20.7667 30.295 20.86H30.54L30.96 21.385H31.03C31.1 21.455 31.1467 21.5133 31.17 21.56H30.61L30.715 21.735H31.31L31.415 21.91H31.31C31.38 22.0033 31.4383 22.12 31.485 22.26C31.555 22.3767 31.625 22.4933 31.695 22.61H31.8L32.115 23.31H32.465L32.57 23.66H32.045L32.115 23.835H32.185L32.29 24.185H32.185C32.185 24.2083 32.185 24.2317 32.185 24.255C32.2083 24.2783 32.22 24.3133 32.22 24.36H30.75C30.7967 24.4533 30.82 24.5467 30.82 24.64C30.8433 24.71 30.8667 24.7917 30.89 24.885H32.71C32.7333 24.9783 32.745 25.0717 32.745 25.165C32.7683 25.235 32.78 25.3167 32.78 25.41H32.29C32.3133 25.5033 32.325 25.5967 32.325 25.69C32.3483 25.76 32.36 25.8417 32.36 25.935H32.815L32.885 26.635H32.43V26.74C32.43 26.7633 32.43 26.7983 32.43 26.845C32.4533 26.8917 32.465 26.9383 32.465 26.985H33.41V27.16H32.57C32.5933 27.2067 32.605 27.265 32.605 27.335H33.235C33.2583 27.4517 33.27 27.5683 33.27 27.685C33.27 27.8017 33.27 27.9183 33.27 28.035H32.22V28.56ZM24.555 29.26H24.87V28.56H23.12V28.035H24.17C24.17 27.9183 24.17 27.8017 24.17 27.685C24.17 27.5683 24.1583 27.4517 24.135 27.335H23.505C23.505 27.2883 23.4933 27.2533 23.47 27.23C23.47 27.2067 23.47 27.1833 23.47 27.16H24.31V26.985H23.365C23.365 26.9383 23.3533 26.9033 23.33 26.88C23.33 26.8567 23.33 26.8333 23.33 26.81V26.635H23.75C23.75 26.5183 23.7383 26.4017 23.715 26.285C23.715 26.145 23.7033 26.0283 23.68 25.935H23.225C23.2017 25.8417 23.1783 25.76 23.155 25.69C23.1317 25.5967 23.0967 25.5033 23.05 25.41H23.54C23.47 25.2233 23.3767 25.0483 23.26 24.885H21.44C21.3233 24.6983 21.1367 24.5233 20.88 24.36H22.35C22.21 24.2667 22.105 24.2083 22.035 24.185H22.14C21.79 24.045 21.405 23.975 20.985 23.975C20.565 23.975 20.18 24.045 19.83 24.185H18.815C18.7217 24.2083 18.605 24.2667 18.465 24.36H19.445C19.2583 24.4767 19.0717 24.6517 18.885 24.885H18.955C18.8383 25.0483 18.745 25.2233 18.675 25.41H18.78C18.7567 25.5033 18.7333 25.5967 18.71 25.69C18.6867 25.76 18.6517 25.8417 18.605 25.935H18.675C18.6517 26.0283 18.6283 26.145 18.605 26.285C18.605 26.4017 18.605 26.5183 18.605 26.635H18.535V26.985H18.955V27.16H18.395V27.335H16.855V28.035H18.15V28.56H18.395V29.26H18.185V29.96H18.36V30.485H18.395C18.395 30.555 18.4067 30.6133 18.43 30.66H17.73V30.835H18.955V31.185H18.255V31.71H18.36V31.885H18.115C18.115 32.0017 18.115 32.1183 18.115 32.235C18.1383 32.3517 18.15 32.4683 18.15 32.585H18.64V32.69C18.64 32.7833 18.64 32.8883 18.64 33.005C18.64 33.0983 18.6517 33.1917 18.675 33.285H18.43C18.4533 33.3317 18.465 33.39 18.465 33.46C18.465 33.53 18.4767 33.5883 18.5 33.635H18.71C18.7333 33.7517 18.7683 33.8683 18.815 33.985C18.8617 34.1017 18.9083 34.2183 18.955 34.335H18.78C18.92 34.5917 19.1067 34.825 19.34 35.035H19.41C19.4567 35.0583 19.5033 35.0933 19.55 35.14C19.5967 35.1633 19.6433 35.1867 19.69 35.21H20.005C20.075 35.2333 20.145 35.2683 20.215 35.315C20.285 35.3383 20.355 35.3617 20.425 35.385H20.005C20.285 35.4783 20.6117 35.525 20.985 35.525C21.3583 35.525 21.685 35.4783 21.965 35.385H22.56C22.63 35.3617 22.7 35.3383 22.77 35.315C22.84 35.2683 22.91 35.2333 22.98 35.21H22.42C22.4667 35.1867 22.5133 35.1633 22.56 35.14C22.6067 35.0933 22.6533 35.0583 22.7 35.035H22.315C22.525 34.8717 22.7117 34.6383 22.875 34.335H23.19C23.3067 34.0783 23.4 33.845 23.47 33.635H23.12C23.1433 33.5883 23.155 33.53 23.155 33.46C23.155 33.39 23.1667 33.3317 23.19 33.285H23.365C23.3883 33.1917 23.4 33.0983 23.4 33.005C23.4 32.8883 23.4 32.7833 23.4 32.69V32.585H23.47C23.47 32.4683 23.47 32.3517 23.47 32.235C23.47 32.1183 23.4817 32.0017 23.505 31.885H23.47V31.71H24.485V31.185H22.805V30.835H23.785V30.66H23.505V30.485H24.24V29.96H24.555V29.26Z" fill="#262626"/>
<path d="M40.025 17.685H33.515V18.385H36V18.91H38.695V19.435H38.625V19.96H39.64V20.66H35.825V20.835H35.09V21.08C35.09 21.2433 35.055 21.395 34.985 21.535H37.47C37.3067 21.8617 37.0383 22.025 36.665 22.025H30.855V22.06H31.205V22.76H31.275V23.46H31.1V24.16H30.645V24.685H32.395V25.035H30.925V25.56H30.155V26.26H31.485V26.61H31.24V27.31H30.995V28.01H30.575V28.71H30.19V29.235H31.485V29.76H30.96V30.46H31.17V30.635H31.415V30.985H33.165V31.51H31.975V32.21H32.5V32.91H31.03V33.61H31.625V33.96H31.87V34.485H32.43V35.185H32.22V35.71H31.31V36.235H31.205V36.585H31.17V37.11H31.555V37.635H31.24V38.055C31.24 38.1717 31.2283 38.265 31.205 38.335H30.855C30.785 38.5683 30.6567 38.7433 30.47 38.86H30.54C30.4233 38.9533 30.26 39 30.05 39H23.05C22.8633 39 22.6883 38.9533 22.525 38.86H22.455C22.2917 38.7433 22.1633 38.5683 22.07 38.335H22.385C22.3617 38.265 22.35 38.1717 22.35 38.055V37.635H22.665V37.11H22.28V36.585H22.315V36.235H22.42V35.71H23.33V35.185H23.54V34.485H22.98V33.96H22.735V33.61H22.14V32.91H23.61V32.21H23.085V31.51H24.275V30.985H22.525V30.635H22.28V30.46H22.07V29.76H22.595V29.235H21.3V28.71H21.685V28.01H22.105V27.31H22.35V26.61H22.595V26.26H21.265V25.56H22.035V25.035H23.505V24.685H21.755V24.16H22.21V23.46H22.385V22.76H22.315V22.06H21.965V22.025H16.155C15.805 22.025 15.525 21.8617 15.315 21.535H12.83C12.8067 21.465 12.7833 21.395 12.76 21.325C12.7133 21.255 12.69 21.1733 12.69 21.08V20.835H13.425V20.66H17.24V19.96H16.225V19.435H16.295V18.91H13.6V18.385H11.115V17.685H17.625V17.16H13.985V16.46H14.685V15.76H15.595V15.585H16.12V15.445C16.12 15.2117 16.19 15.025 16.33 14.885H15.56C15.7467 14.6283 16.0033 14.5 16.33 14.5H36.84C37.1667 14.5 37.4233 14.6283 37.61 14.885H38.345C38.4617 15.0483 38.52 15.235 38.52 15.445V15.585H37.995V15.76H37.085V16.46H36.385V17.16H40.025V17.685Z" fill="#B4B4B4"/>
</svg>
